<?xml version="1.0" encoding="utf-8"?>
<!-- Generator: Adobe Illustrator 27.5.0, SVG Export Plug-In . SVG Version: 6.00 Build 0)  -->
<svg version="1.1" xmlns="http://www.w3.org/2000/svg" xmlns:xlink="http://www.w3.org/1999/xlink" x="0px" y="0px"
	 viewBox="0 0 500 500" style="enable-background:new 0 0 500 500;" xml:space="preserve">
<g id="Background_Simple">
	<g>
		<path style="fill:#92E3A9;" d="M464.497,110.177c-1.584-2.687-3.246-5.323-4.987-7.903
			c-23.183-34.346-63.071-57.838-102.312-68.458c-17.184-4.651-34.93-7.089-52.711-7.692
			c-116.614-3.953-163.062,87.955-201.604,111.673S5.045,202.033,8.998,287.024s65.225,165.039,183.816,169.98
			c118.591,4.941,126.497-48.424,192.71-68.19c43.819-13.08,74.952-57.26,90.197-98.088
			C496.496,235.084,495.517,162.81,464.497,110.177z"/>
		<path style="opacity:0.7;fill:#FFFFFF;" d="M464.497,110.177c-1.584-2.687-3.246-5.323-4.987-7.903
			c-23.183-34.346-63.071-57.838-102.312-68.458c-17.184-4.651-34.93-7.089-52.711-7.692
			c-116.614-3.953-163.062,87.955-201.604,111.673S5.045,202.033,8.998,287.024s65.225,165.039,183.816,169.98
			c118.591,4.941,126.497-48.424,192.71-68.19c43.819-13.08,74.952-57.26,90.197-98.088
			C496.496,235.084,495.517,162.81,464.497,110.177z"/>
	</g>
</g>
<g id="Desk">
	<g style="opacity:0.3;">
		
			<rect x="24.582" y="293.939" style="fill:none;stroke:#000000;stroke-linecap:round;stroke-linejoin:round;stroke-miterlimit:10;" width="208.724" height="7.667"/>
		
			<rect x="28.491" y="301.576" style="fill:none;stroke:#000000;stroke-linecap:round;stroke-linejoin:round;stroke-miterlimit:10;" width="201.01" height="99.895"/>
		
			<line style="fill:none;stroke:#000000;stroke-linecap:round;stroke-linejoin:round;stroke-miterlimit:10;" x1="11" y1="414" x2="246" y2="414"/>
		
			<rect x="29.75" y="401.417" style="fill:none;stroke:#000000;stroke-linecap:round;stroke-linejoin:round;stroke-miterlimit:10;" width="7" height="11.833"/>
		
			<rect x="220.463" y="401.417" style="fill:none;stroke:#000000;stroke-linecap:round;stroke-linejoin:round;stroke-miterlimit:10;" width="7" height="11.833"/>
		<path style="fill:none;stroke:#000000;stroke-linecap:round;stroke-linejoin:round;stroke-miterlimit:10;" d="M172.667,234.333
			h-46c-4.602,0-8.333,3.731-8.333,8.333v51.342H181v-51.342C181,238.064,177.269,234.333,172.667,234.333z"/>
		<g>
			
				<rect x="69.19" y="292.309" style="fill:#FFFFFF;stroke:#000000;stroke-linecap:round;stroke-linejoin:round;stroke-miterlimit:10;" width="31.436" height="1.874"/>
			<g>
				<path style="fill:none;stroke:#000000;stroke-linecap:round;stroke-linejoin:round;stroke-miterlimit:10;" d="M50.245,291.766
					H36.536c-1.353,0-2.469-1.059-2.54-2.409c-0.014-0.285,0.018-0.569,0.081-0.794l7.902-22.717
					c-0.129-0.352-0.256-0.709-0.374-1.063c-0.205-0.615-0.319-1.349-0.38-2.068c-0.205,0.116-0.376,0.295-0.46,0.535l-8.594,24.706
					c-0.142,0.489-0.2,0.995-0.174,1.505c0.128,2.414,2.121,4.305,4.538,4.305h13.709c0.553,0,1-0.447,1-1
					C51.245,292.213,50.798,291.766,50.245,291.766z"/>
				<g>
					<path style="fill:none;stroke:#000000;stroke-linecap:round;stroke-linejoin:round;stroke-miterlimit:10;" d="M46.706,229.436
						l15.143,57.979l-1.657,1.243c0,0-19.058-14.915-19.058-27.344c0-12.429,3.314-31.487,3.314-31.487L46.706,229.436z"/>
					<polygon style="fill:none;stroke:#000000;stroke-linecap:round;stroke-linejoin:round;stroke-miterlimit:10;" points="
						46.706,229.436 44.448,229.828 60.192,288.659 61.849,287.416 					"/>
				</g>
			</g>
		</g>
	</g>
</g>
<g id="Clock">
	<g style="opacity:0.3;">
		<circle style="fill:none;stroke:#000000;stroke-miterlimit:10;" cx="52.108" cy="143.083" r="25.892"/>
		
			<ellipse transform="matrix(0.9239 -0.3827 0.3827 0.9239 -50.789 30.8325)" style="fill:none;stroke:#000000;stroke-miterlimit:10;" cx="52.108" cy="143.083" rx="21.184" ry="21.184"/>
		<polyline style="fill:none;stroke:#000000;stroke-miterlimit:10;" points="44.83,149.413 52.108,143.083 52.108,162.685 		"/>
	</g>
</g>
<g id="Picture">
	<g style="opacity:0.3;">
		
			<rect x="104" y="112" style="fill:none;stroke:#000000;stroke-linecap:round;stroke-linejoin:round;stroke-miterlimit:10;" width="75" height="83"/>
		
			<rect x="108.518" y="117" style="fill:none;stroke:#000000;stroke-linecap:round;stroke-linejoin:round;stroke-miterlimit:10;" width="65.964" height="73"/>
		
			<rect x="126.59" y="137" style="fill:none;stroke:#000000;stroke-linecap:round;stroke-linejoin:round;stroke-miterlimit:10;" width="29.819" height="33"/>
	</g>
</g>
<g id="Beach">
	<g style="opacity:0.3;">
		<g>
			<line style="fill:none;stroke:#000000;stroke-miterlimit:10;" x1="286" y1="319" x2="471.095" y2="319"/>
			<path style="fill:none;stroke:#000000;stroke-miterlimit:10;" d="M258.459,390.685c0,0,51.038,4.438,63.243,2.219
				c12.205-2.219-11.095-13.314,11.095-14.424c22.19-1.109,53.257,11.095,72.119,11.095c18.862,0,6.657-16.643,14.424-21.081
				c7.767-4.438,46.6,0,52.148,0"/>
			<path style="fill:none;stroke:#000000;stroke-miterlimit:10;" d="M264.214,375.123c0,0,26.514,1.233,43.779,0
				c17.265-1.233-28.364-8.016-4.316-11.716c24.048-3.7,36.996,4.316,59.811,7.399c22.814,3.083,12.949-1.85,16.648-11.099
				c3.7-9.249,73.376,3.083,90.641,3.083c17.265,0,5.549,1.233-1.85-6.166s17.882-3.7,17.882-3.7"/>
			<path style="fill:none;stroke:#000000;stroke-miterlimit:10;" d="M407.267,379.131c0,1.873-5.245,3.391-11.716,3.391
				c-6.47,0-11.716-1.518-11.716-3.391c0-1.873,5.245-3.391,11.716-3.391C402.022,375.739,407.267,377.258,407.267,379.131z"/>
			<path style="fill:none;stroke:#000000;stroke-miterlimit:10;" d="M328.958,371.732c0,1.532-2.761,2.775-6.166,2.775
				s-6.166-1.242-6.166-2.775c0-1.533,2.761-2.775,6.166-2.775S328.958,370.199,328.958,371.732z"/>
			<path style="fill:none;stroke:#000000;stroke-miterlimit:10;" d="M306.76,386.222c0,0.681-1.656,1.233-3.7,1.233
				c-2.043,0-3.7-0.552-3.7-1.233c0-0.681,1.656-1.233,3.7-1.233C305.103,384.988,306.76,385.541,306.76,386.222z"/>
		</g>
	</g>
</g>
<g id="Clouds">
	<path style="opacity:0.3;fill:none;stroke:#000000;stroke-miterlimit:10;" d="M457.252,132.951c0,0,1.945-11.673-10.376-16.861
		c-12.322-5.188-18.158,2.594-21.401,10.376c-3.243,7.782-3.243,2.594-14.267,3.243c-11.025,0.648-7.782,11.025-12.322,14.916
		c-4.54,3.891-14.267-4.54-19.455,0C374.242,149.163,371,155,371,155h107.652c0,0,3.243-9.079-3.242-14.267
		C468.925,135.545,457.9,143.975,457.252,132.951z"/>
	<path style="opacity:0.3;fill:none;stroke:#000000;stroke-miterlimit:10;" d="M361.955,193.307c0,0,1.668-10.009-8.897-14.457
		c-10.565-4.448-15.569,2.224-18.35,8.897c-2.78,6.673-2.78,2.224-12.233,2.78c-9.453,0.556-6.673,9.453-10.565,12.789
		c-3.892,3.336-12.233-3.892-16.682,0c-4.448,3.892-7.229,8.897-7.229,8.897h92.305c0,0,2.78-7.785-2.78-12.233
		C371.964,195.532,362.511,202.76,361.955,193.307z"/>
</g>
<g id="Sun">
	<g style="opacity:0.3;">
		
			<ellipse transform="matrix(0.975 -0.2224 0.2224 0.975 -4.9761 85.0492)" style="fill:none;stroke:#000000;stroke-miterlimit:10;" cx="375.199" cy="64.622" rx="21.854" ry="21.854"/>
		<line style="fill:none;stroke:#000000;stroke-miterlimit:10;" x1="375.199" y1="92.304" x2="375.199" y2="107.603"/>
		<line style="fill:none;stroke:#000000;stroke-miterlimit:10;" x1="375.199" y1="18" x2="375.199" y2="33.298"/>
		<line style="fill:none;stroke:#000000;stroke-miterlimit:10;" x1="345.695" y1="62.801" x2="330.397" y2="62.801"/>
		<line style="fill:none;stroke:#000000;stroke-miterlimit:10;" x1="420" y1="62.801" x2="404.702" y2="62.801"/>
		<line style="fill:none;stroke:#000000;stroke-miterlimit:10;" x1="354.337" y1="83.663" x2="343.52" y2="94.48"/>
		<line style="fill:none;stroke:#000000;stroke-miterlimit:10;" x1="406.878" y1="31.122" x2="396.061" y2="41.939"/>
		<line style="fill:none;stroke:#000000;stroke-miterlimit:10;" x1="404.702" y1="62.801" x2="420" y2="62.801"/>
		<line style="fill:none;stroke:#000000;stroke-miterlimit:10;" x1="330.397" y1="62.801" x2="345.695" y2="62.801"/>
		<line style="fill:none;stroke:#000000;stroke-miterlimit:10;" x1="396.061" y1="83.663" x2="406.878" y2="94.48"/>
		<line style="fill:none;stroke:#000000;stroke-miterlimit:10;" x1="343.52" y1="31.122" x2="354.337" y2="41.939"/>
	</g>
</g>
<g id="Line">
	
		<line style="opacity:0.3;fill:none;stroke:#000000;stroke-linecap:round;stroke-linejoin:round;stroke-miterlimit:10;" x1="250" y1="31" x2="250" y2="469"/>
</g>
<g id="Character">
	<g>
		<path style="fill:#FFFFFF;stroke:#263238;stroke-linecap:round;stroke-linejoin:round;stroke-miterlimit:10;" d="M319.004,135.129
			l12.333-9l-16.667-34c0,0-1-7.333,5.333-5.333c6.333,2,20.667,19.333,27.333,26c6.667,6.667,9.333,10.667,8.333,14
			s-32.333,28.667-32.333,28.667L319.004,135.129z"/>
		<path style="fill:#FFFFFF;stroke:#263238;stroke-linecap:round;stroke-linejoin:round;stroke-miterlimit:10;" d="M175.794,361.393
			c0,0-26.239,17.071-35.091,23.71c-8.852,6.639-18.652,10.749-22.129,12.013c-3.478,1.265-11.697,0-13.91,2.529
			c-2.213,2.529-2.845,9.168-2.845,12.329c0,3.161-4.11,18.652-5.69,24.659c-1.581,6.007,2.845,8.22,4.742,8.22
			s1.897-4.742,4.11-7.903c2.213-3.161,12.962-22.762,21.813-27.188c8.852-4.426,49.317-18.652,61.33-24.659
			c12.013-6.007,16.439-11.697,16.439-11.697L175.794,361.393z"/>
		<g>
			<path style="fill:#92E3A9;" d="M193.161,296.741l-8.146,51.14c0,0-5.431,0.905-6.336,2.263
				c-0.905,1.358-5.883,10.409-5.883,10.409s10.409,9.957,21.723,14.935c11.314,4.978,22.176,6.336,22.176,6.336l25.344-61.55
				L193.161,296.741z"/>
			<g style="opacity:0.5;">
				<path style="fill:#FFFFFF;" d="M211.424,361.016c3.55-2.259,7.594,0.912,11.942,4.605l4.096-9.948
					c-8.065-5.377-19.818-12.648-24.479-9.851c-6.331,3.799-4.221,10.129-9.707,13.928c-4.053,2.806-10.178-4.519-15.145-8.71
					c-1.578,2.681-5.337,9.513-5.337,9.513s7.659,7.322,16.977,12.548c1.216-3.951,0.914-9.595,10.257-7.865
					c9.066,1.679,5.046,8.432,4.51,13.887c6.953,2.05,12.156,2.701,12.156,2.701l4.105-9.97
					C216.389,366.761,207.879,363.272,211.424,361.016z"/>
				<path style="fill:#FFFFFF;" d="M185.675,343.737c8.274,0.451,15.746-22.268,23.217-14.797
					c7.554,7.554,12.606,25.115,21.377,19.917l5.756-13.98c-0.615-0.368-1.356-0.666-2.233-0.872
					c-7.175-1.688-17.726-7.597-9.707-10.129c4.371-1.38,10.37-0.247,15.131,3.253l2.822-6.854l-30.189-14.535l-4.646,2.943
					c0,0,2.954,10.551-5.487,13.506c-5.162,1.807-9.374-0.329-12.449-1.01L185.675,343.737z"/>
			</g>
			<polygon style="fill:#263238;stroke:#263238;stroke-linecap:round;stroke-linejoin:round;stroke-miterlimit:10;" points="
				191.821,301.273 230.269,348.857 238.55,330.724 190.643,298.524 			"/>
			<path style="fill:none;stroke:#263238;stroke-linecap:round;stroke-linejoin:round;stroke-miterlimit:10;" d="M193.161,296.741
				l-8.146,51.14c0,0-5.431,0.905-6.336,2.263c-0.905,1.358-5.883,10.409-5.883,10.409s10.409,9.957,21.723,14.935
				c11.314,4.978,22.176,6.336,22.176,6.336l25.344-61.55L193.161,296.741z"/>
		</g>
		<path style="fill:#FFFFFF;stroke:#263238;stroke-linecap:round;stroke-linejoin:round;stroke-miterlimit:10;" d="M91.069,398.697
			c0,0,0.632,29.084,1.265,37.62c0.632,8.536,6.323,12.645,8.219,12.013c1.897-0.632,2.213-2.845,0.316-3.477
			c-1.897-0.632-6.639-4.11-6.639-12.013c0-7.903,1.581-32.246,1.581-34.143C95.811,396.8,92.334,397.116,91.069,398.697z"/>
		<polygon style="fill:#263238;stroke:#263238;stroke-linecap:round;stroke-linejoin:round;stroke-miterlimit:10;" points="
			95.179,414.187 116.346,420.86 109.62,431.026 94.547,426.201 		"/>
		<g>
			<polygon style="fill:#263238;stroke:#263238;stroke-linecap:round;stroke-linejoin:round;stroke-miterlimit:10;" points="
				123.545,279.667 135.647,268.68 159.339,291.555 148.391,303.506 146.209,300.82 154.771,290.915 135.647,272.357 
				125.435,282.16 			"/>
			<path style="fill:#FFFFFF;stroke:#263238;stroke-linecap:round;stroke-linejoin:round;stroke-miterlimit:10;" d="
				M118.112,379.349l-69.817-64.902c-2.056-1.935-2.154-5.17-0.22-7.225l47.133-50.087c1.935-2.056,5.17-2.154,7.225-0.22
				l69.817,64.902c2.056,1.935,2.154,5.169,0.22,7.225l-47.133,50.087C123.403,381.185,120.168,381.283,118.112,379.349z"/>
			<g>
				<polygon style="fill:#263238;stroke:#263238;stroke-linecap:round;stroke-linejoin:round;stroke-miterlimit:10;" points="
					163.945,314.798 160.182,311.257 106.185,368.922 109.948,372.463 				"/>
				<polygon style="fill:#263238;stroke:#263238;stroke-linecap:round;stroke-linejoin:round;stroke-miterlimit:10;" points="
					56.851,322.499 60.614,326.04 114.612,268.374 110.849,264.833 				"/>
			</g>
		</g>
		<path style="fill:#FFFFFF;stroke:#263238;stroke-linecap:round;stroke-linejoin:round;stroke-miterlimit:10;" d="M187.115,200.055
			c0,0-8.987,4.902-10.62,7.761c-1.634,2.859-23.283,56.779-23.283,56.779s-15.931,10.212-15.114,13.071
			c0.817,2.859,7.353,10.212,7.353,10.212s4.493,0,5.719,0c1.225,0,8.986-17.973,11.437-22.058s29.411-45.341,29.411-45.341
			l3.676-2.042L187.115,200.055z"/>
		<g>
			<path style="fill:#92E3A9;stroke:#263238;stroke-linecap:round;stroke-linejoin:round;stroke-miterlimit:10;" d="
				M260.004,158.796c0,0-34.667,6-37.333,9.333c-2.667,3.333-39.667,31-39.667,31l15.667,26l21-15.667c0,0-25,58-24.667,59
				c0.333,1,35.333,21.333,44,22.333c8.667,1,12.333,1,12.333,1s26.333-61.667,31.667-68.333c5.333-6.667,15.667-41,15.667-41
				l28.667-18.667l-6-31l-34.333,18.333L260.004,158.796z"/>
			<path style="fill:#FFFFFF;stroke:#263238;stroke-linecap:round;stroke-linejoin:round;stroke-miterlimit:10;" d="M281.567,206.07
				l8.599-44.07l-4.299-3.225l-13.252-3.56l-12.61,3.581c0,0-4.571,0.792-10.515,1.958L281.567,206.07z"/>
			<g>
				
					<line style="fill:none;stroke:#263238;stroke-linecap:round;stroke-linejoin:round;stroke-miterlimit:10;" x1="219.671" y1="209.463" x2="237.326" y2="197.865"/>
				
					<line style="fill:none;stroke:#263238;stroke-linecap:round;stroke-linejoin:round;stroke-miterlimit:10;" x1="228.078" y1="203.81" x2="239.308" y2="202.488"/>
				
					<line style="fill:none;stroke:#263238;stroke-linecap:round;stroke-linejoin:round;stroke-miterlimit:10;" x1="298.671" y1="182.463" x2="302.3" y2="166.132"/>
				
					<line style="fill:none;stroke:#263238;stroke-linecap:round;stroke-linejoin:round;stroke-miterlimit:10;" x1="298.613" y1="181.496" x2="306.294" y2="166.44"/>
			</g>
		</g>
		<g>
			<path style="fill:#FFFFFF;stroke:#263238;stroke-linecap:round;stroke-linejoin:round;stroke-miterlimit:10;" d="
				M309.143,117.009c0,0,2.948,12.122,3.604,13.76c0.655,1.638,3.276,4.587,3.276,7.208s-4.914,4.587-4.914,4.587
				s-0.655,15.398-2.949,17.363c-2.293,1.966-19.329-1.966-19.329-1.966l-3.931,12.122l-5.569,24.243l-22.278-34.399l6.552-10.484
				l-5.897-19.329l50.124-17.036L309.143,117.009z"/>
			<polygon style="fill:#263238;stroke:#263238;stroke-linecap:round;stroke-linejoin:round;stroke-miterlimit:10;" points="
				288.831,157.961 285.05,156.221 284.9,170.082 			"/>
			<g>
				<path style="fill:#263238;stroke:#263238;stroke-linecap:round;stroke-linejoin:round;stroke-miterlimit:10;" d="
					M298.044,125.842c0,0,0.811,7.3,6.692,9.328c5.881,2.028,6.895-4.461,6.692-6.692c-0.203-2.231-0.811-5.881-0.811-5.881
					S303.722,121.584,298.044,125.842z"/>
				<polygon style="fill:#263238;stroke:#263238;stroke-linecap:round;stroke-linejoin:round;stroke-miterlimit:10;" points="
					298.044,125.842 279.388,131.723 280.199,132.737 298.855,129.087 				"/>
				<path style="fill:#263238;stroke:#263238;stroke-linecap:round;stroke-linejoin:round;stroke-miterlimit:10;" d="
					M310.616,122.598c0,0,1.42-2.028,3.245,0.608c1.825,2.636-0.203,8.111-0.203,8.111S310.819,125.842,310.616,122.598z"/>
			</g>
			<path style="fill:none;stroke:#263238;stroke-linecap:round;stroke-linejoin:round;stroke-miterlimit:10;" d="M299.869,142.673
				c0,0,2.028,3.042,5.678,3.447"/>
			<path style="fill:#263238;stroke:#263238;stroke-linecap:round;stroke-linejoin:round;stroke-miterlimit:10;" d="
				M304.872,114.084l-47.164,16.03l5.897,19.329l-0.187,0.299c1.646,0.416,4.312,0.863,6.252,0.054c3-1.25,9.5-6.5,9.5-6.5
				l1.029-10.559l4.971,3.309c0,0,0,0,1.25-0.75s1-6.75,1-6.75s0.75-0.5,4.75-3.75C295.142,122.382,301.696,116.798,304.872,114.084
				z"/>
			<path style="fill:#FFFFFF;stroke:#263238;stroke-linecap:round;stroke-linejoin:round;stroke-miterlimit:10;" d="
				M282.607,136.338c0,0-4.259-9.828-9.173-4.586c-4.914,5.242,4.259,13.432,5.569,13.76c1.31,0.328,2.948-0.655,2.948-0.655
				s0.655,4.587,3.604,7.535"/>
		</g>
		<polygon style="fill:#263238;stroke:#263238;stroke-linecap:round;stroke-linejoin:round;stroke-miterlimit:10;" points="
			239.775,162.78 256.068,279.996 259.236,272.755 245.659,161.422 		"/>
		<path style="fill:#263238;stroke:#263238;stroke-linecap:round;stroke-linejoin:round;stroke-miterlimit:10;" d="M260.141,270.944
			c0,0-8.146,16.745-8.146,18.103s11.314,6.788,13.577,6.336c2.263-0.453,6.789-12.672,7.694-17.65
			C274.171,272.755,263.762,268.681,260.141,270.944z"/>
		<path style="fill:#FFFFFF;stroke:#263238;stroke-linecap:round;stroke-linejoin:round;stroke-miterlimit:10;" d="M348.105,413.552
			c0,0,5.204-0.644,2.921,6.148c-2.283,6.793-6.627,11.796-11.931,14.934c-5.304,3.138-21.334,10.901-27.088,11.584
			c-5.754,0.683-7.203-4.188-1.977-8.426c5.227-4.237,29.135-17.807,30.943-19.592C342.781,416.415,348.105,413.552,348.105,413.552
			z"/>
		<path style="fill:#FFFFFF;stroke:#263238;stroke-linecap:round;stroke-linejoin:round;stroke-miterlimit:10;" d="M271.003,331.136
			c0,0,3.519,19.843,15.752,39.226c16.074,25.469,21.643,56.074,23.736,65.007c1.089,4.647,6.325,6.997,10.49,4.664
			c0.3-0.168,0.601-0.354,0.903-0.56c5.194-3.543,11.743-7.181,11.743-7.181s11.259-7.601,12.906-9.986
			c1.646-2.385,3.526-14.314,3.366-16.571c-0.159-2.257-4.546-0.133-6.257,1.349c-1.71,1.482-6.097,3.607-6.097,3.607l-16.9,4.823
			c0,0-8.061-33.881-9.577-41.936c-4.801-25.498-10.648-58.736-14.721-62.357c-4.073-3.621-11.314-5.431-11.314-5.431
			L271.003,331.136z"/>
		<path style="fill:#263238;stroke:#263238;stroke-linecap:round;stroke-linejoin:round;stroke-miterlimit:10;" d="M325.86,413.867
			c0,0,0.446,15.674,3.778,23.728l12.178-6.115c0,0-2.354-15.107-2.451-16.482c-0.097-1.375-1.528-5.13-1.528-5.13
			S329.809,411.101,325.86,413.867z"/>
		<path style="fill:#FFFFFF;stroke:#263238;stroke-linecap:round;stroke-linejoin:round;stroke-miterlimit:10;" d="M254.104,131.752
			l3.066-21.471c0.457-3.201,2.731-5.845,5.827-6.778l29.127-8.77c3.824-1.151,7.936,0.493,9.911,3.964l8.745,15.364
			c0,0,38.331-11.139,35.71-7.535c-2.621,3.604-53.728,16.053-75.678,23.26c-21.95,7.207-40.951,19.329-42.262,18.019
			C227.24,146.494,254.104,131.752,254.104,131.752z"/>
		<g>
			<path style="fill:#FFFFFF;stroke:#263238;stroke-linecap:round;stroke-linejoin:round;stroke-miterlimit:10;" d="M322.337,88.796
				c0,0-7-5.667-12.667-4.667c-5.667,1-27,3.333-29,4.667c-2,1.333-8,10.333-8,10.333s0,0.667,1.667,0.667
				c1.667,0,7.667-6.667,7.667-6.667l2-0.333c0,0-7.333,6-6,7.667c1.333,1.667,5.333-1.667,6.333-2.333
				c1-0.667,5.667-3.333,5.667-3.333l7.333-1c0,0-7,5.667-8.667,7.333c-1.667,1.667-1.333,3.667,1.333,2
				c2.667-1.667,10.333-6.667,10.333-6.667s5-1.667,6.667-2.333c1.667-0.667,5-2.333,5-2.333l5,2.667"/>
			
				<line style="fill:none;stroke:#263238;stroke-linecap:round;stroke-linejoin:round;stroke-miterlimit:10;" x1="284.004" y1="92.796" x2="290.625" y2="90.419"/>
		</g>
		<g>
			<path style="fill:#92E3A9;" d="M196.329,265.966c0,0-9.957,22.629-8.146,30.322s74.222,54.761,74.222,54.761l27.607-45.257
				l-38.016-16.745C251.995,289.047,211.716,280.901,196.329,265.966z"/>
			<g style="opacity:0.5;">
				<path style="fill:#FFFFFF;" d="M251.995,289.047c0,0-0.222-0.045-0.63-0.132c0.147,1.293,0.117,2.328-0.027,2.881
					c-0.663,2.536-20.077-1.684-17.122,5.913c2.954,7.597,21.947,4.221,25.745,9.285c3.798,5.064-6.753,17.304-16.038,13.083
					c-9.285-4.22-18.148-16.46-19.836-7.175c-0.677,3.721,0.546,8.932,2.28,13.924c4.226,2.932,8.43,5.807,12.399,8.496
					c-4.045-5.727-6.341-10.417-2.017-9.336c10.129,2.532,17.304,16.882,23.213,14.35c5.909-2.532-4.22-20.258,2.532-25.323
					c6.753-5.065,13.927,2.11,16.46-4.643c2.532-6.753-9.707-6.753-15.616-11.817c-2.203-1.888-2.762-3.835-2.423-5.578
					L251.995,289.047z"/>
				<path style="fill:#FFFFFF;" d="M202.983,299.397c-2.888,0.788-5.693,2.31-8.189,4.034c3.798,3.234,8.95,7.189,14.728,11.425
					c-0.432-2.289-0.16-4.605,1.479-6.595c5.909-7.175,17.304-1.266,19.836-9.285c2.532-8.019-13.505-9.707-10.129-18.148
					c0.119-0.297,0.242-0.579,0.367-0.852c-5.126-1.973-10.246-4.255-14.792-6.835c-2.655,1.357-6.843,4.566-1.613,9.797
					C211.846,290.112,212.268,296.865,202.983,299.397z"/>
			</g>
		</g>
		<path style="fill:none;stroke:#263238;stroke-miterlimit:10;" d="M196.329,265.966c0,0-9.957,22.629-8.146,30.322
			s74.222,54.761,74.222,54.761l27.607-45.257l-38.016-16.745C251.995,289.047,211.716,280.901,196.329,265.966z"/>
	</g>
</g>
</svg>
